<svg xmlns="http://www.w3.org/2000/svg" viewBox="0 0 720 180" fill="none" role="img" aria-label="Orrery">
  <title>Orrery</title>
  <defs>
    <linearGradient id="panel" x1="0" y1="0" x2="720" y2="180" gradientUnits="userSpaceOnUse">
      <stop offset="0" stop-color="#152349"/>
      <stop offset="1" stop-color="#071022"/>
    </linearGradient>
    <radialGradient id="sun" cx="34%" cy="30%" r="72%">
      <stop offset="0" stop-color="#FFF2BF"/>
      <stop offset="0.48" stop-color="#F2B14E"/>
      <stop offset="1" stop-color="#A96A18"/>
    </radialGradient>
    <linearGradient id="ice" x1="42" y1="48" x2="150" y2="122" gradientUnits="userSpaceOnUse">
      <stop offset="0" stop-color="#EAF5FF"/>
      <stop offset="1" stop-color="#82ADE8"/>
    </linearGradient>
  </defs>

  <rect width="720" height="180" rx="30" fill="url(#panel)"/>
  <rect x="1.25" y="1.25" width="717.5" height="177.5" rx="28.75" stroke="#2B395E" stroke-width="2.5"/>

  <g transform="translate(42 28)">
    <circle cx="62" cy="62" r="44" stroke="#E8ECF8" stroke-width="12"/>
    <path d="M21 82C47 106 96 102 116 70" stroke="url(#ice)" stroke-width="8" stroke-linecap="round"/>
    <path d="M19 62C19 37 37 19 62 19" stroke="#071022" stroke-width="15" stroke-linecap="round"/>
    <circle cx="62" cy="62" r="17" fill="url(#sun)"/>
    <circle cx="103" cy="32" r="8" fill="#F2B14E" stroke="#071022" stroke-width="4"/>
    <circle cx="24" cy="89" r="7" fill="#9DB9F0" stroke="#071022" stroke-width="3"/>
  </g>

  <g transform="translate(190 52)">
    <text x="0" y="62" font-family="'Bricolage Grotesque', 'Segoe UI', Arial, sans-serif" font-size="76" font-weight="760" fill="#F4F7FF">Orrery</text>
    <path d="M6 86H136" stroke="#F2B14E" stroke-width="5" stroke-linecap="round"/>
    <path d="M156 86H334" stroke="#9DB9F0" stroke-width="5" stroke-linecap="round" opacity="0.88"/>
    <circle cx="146" cy="86" r="7" fill="#F4F7FF"/>
  </g>
</svg>
